<svg xmlns="http://www.w3.org/2000/svg" width="38" height="21" viewBox="0 0 38 21" fill="none"><path d="M17.8967 16.2496L13.2595 11.6125L12.071 12.801C10.8175 14.0545 8.78501 14.0545 7.53146 12.801C6.27791 11.5474 6.27791 9.51494 7.53146 8.26139C8.78501 7.00785 10.8175 7.00785 12.071 8.26139L21.2516 17.4419C25.0677 21.2581 31.255 21.2581 35.0712 17.4419C38.8873 13.6258 38.8873 7.43845 35.0712 3.62232C31.255 -0.19382 25.0677 -0.19382 21.2516 3.62232L20.0612 4.81271L24.6983 9.44987L25.8868 8.26139C27.1404 7.00785 29.1728 7.00785 30.4264 8.26139C31.6799 9.51494 31.6799 11.5474 30.4264 12.801C29.1728 14.0545 27.1404 14.0545 25.8868 12.801L16.7063 3.6204C12.8901 -0.195734 6.70278 -0.195734 2.88664 3.6204C-0.929498 7.43654 -0.929498 13.6239 2.88664 17.44C6.70278 21.2562 12.8901 21.2562 16.7063 17.44L17.8967 16.2496Z" fill="#32DC00"></path></svg>