<svg xmlns="http://www.w3.org/2000/svg" width="126" height="29" viewBox="0 0 126 29" fill="none"><g clip-path="url(#clip0_10213_2003)"><path d="M105.897 24.2496L101.259 19.6125L100.071 20.801C98.8175 22.0545 96.785 22.0545 95.5315 20.801C94.2779 19.5474 94.2779 17.5149 95.5315 16.2614C96.785 15.0078 98.8175 15.0078 100.071 16.2614L109.252 25.4419C113.068 29.2581 119.255 29.2581 123.071 25.4419C126.887 21.6258 126.887 15.4385 123.071 11.6223C119.255 7.80618 113.068 7.80618 109.252 11.6223L108.061 12.8127L112.698 17.4499L113.887 16.2614C115.14 15.0078 117.173 15.0078 118.426 16.2614C119.68 17.5149 119.68 19.5474 118.426 20.801C117.173 22.0545 115.14 22.0545 113.887 20.801L104.706 11.6204C100.89 7.80427 94.7028 7.80427 90.8866 11.6204C87.0705 15.4365 87.0705 21.6239 90.8866 25.44C94.7028 29.2562 100.89 29.2562 104.706 25.44L105.897 24.2496Z" fill="#32DC00"></path><path d="M13.9169 19.9262L19.2335 21.1013C18.3301 25.4724 14.4968 28.301 9.97636 28.301C4.55071 28.301 0.0666504 24.3701 0.0666504 18.5291C0.0666504 12.6882 4.55071 8.75719 9.97445 8.75719C14.3858 8.75719 18.2191 11.5131 19.2315 15.8479L13.8078 17.1703C13.3006 14.9292 11.8194 13.9015 9.97445 13.9015C7.36975 13.9015 5.63392 15.8479 5.63392 18.531C5.63392 21.2142 7.36975 23.1605 9.97445 23.1605C11.8194 23.1605 13.3006 22.1692 13.9169 19.9281V19.9262ZM34.4368 9.19928L34.1841 15.0766H33.1354C29.0858 15.0766 26.8791 17.2067 26.8791 21.9835V27.7518H21.0937V9.30837H26.8791V12.8355C28.1805 10.6308 30.1709 9.05192 33.1354 9.05192C33.6425 9.05192 34.0042 9.08828 34.4368 9.19928ZM54.2734 20.0353H40.9648C41.4356 22.24 42.9169 23.5988 44.8709 23.5988C46.2086 23.5988 47.7645 23.2677 48.7406 21.4687L53.8753 22.5347C52.3194 26.4293 49.0296 28.3029 44.8709 28.3029C39.627 28.3029 35.2865 24.372 35.2865 18.531C35.2865 12.6901 39.627 8.75911 44.9053 8.75911C50.1836 8.75911 54.1624 12.5063 54.2715 18.531V20.0372L54.2734 20.0353ZM41.0739 16.4354H48.5588C48.0152 14.4508 46.5703 13.5322 44.9053 13.5322C43.2403 13.5322 41.6155 14.5599 41.0719 16.4354H41.0739ZM76.0621 27.7498H70.2767V26.28C68.8662 27.5661 66.9868 28.301 64.6348 28.301C59.8254 28.301 55.7757 24.3701 55.7757 18.5291C55.7757 12.6882 59.8254 8.75719 64.6348 8.75719C66.9849 8.75719 68.8662 9.4921 70.2767 10.7782V1.30099H76.0621V27.7518V27.7498ZM70.2767 18.5291C70.2767 15.7005 68.1792 13.7542 65.829 13.7542C63.297 13.7542 61.454 15.7005 61.454 18.5291C61.454 21.3577 63.2989 23.3041 65.829 23.3041C68.1792 23.3041 70.2767 21.3941 70.2767 18.5291ZM85.191 27.7498V9.30837H79.4056V27.7498H85.191ZM82.3146 0.303894C80.4677 0.303894 78.9692 1.80241 78.9692 3.64923C78.9692 5.49606 80.4677 6.99457 82.3146 6.99457C84.1614 6.99457 85.6599 5.49606 85.6599 3.64923C85.6599 1.80241 84.1614 0.303894 82.3146 0.303894Z" fill="white"></path></g><defs><clipPath id="clip0_10213_2003"><rect width="126" height="28" fill="white" transform="translate(0 0.303894)"></rect></clipPath></defs></svg>